<?xml version="1.0" standalone="no"?><!DOCTYPE svg PUBLIC "-//W3C//DTD SVG 1.1//EN" "http://www.w3.org/Graphics/SVG/1.1/DTD/svg11.dtd"><svg t="1725080368912" class="icon" viewBox="0 0 1536 1024" version="1.1" xmlns="http://www.w3.org/2000/svg" p-id="4265" xmlns:xlink="http://www.w3.org/1999/xlink" width="300" height="200"><path d="M1173.23962426 156.84634399H221.54894996A80.33752417 80.33752417 0 0 0 141.21142578 236.93667602v524.04785181a80.33752417 80.33752417 0 0 0 80.33752418 80.33752417h951.87606858c44.37103248 0 80.33752417-36.02828956 80.1521299-80.15212989V236.93667602A80.33752417 80.33752417 0 0 0 1173.23962426 156.84634399z" fill="#FF7232" p-id="4266"></path><path d="M622.61859155 680.83239721V472.3256228L515.70788575 605.93310523 408.92077636 472.3256228v208.568573l-107.2196958-48.63510181V317.2742002h106.91070509l106.91070581 133.669281 106.84890722-133.669281h106.91070582v409.72137451z" fill="#FFFFFF" p-id="4267"></path><path d="M882.78857422 156.66094971h308.99047875a61.79809547 61.79809547 0 0 1 61.79809547 61.79809546v556.18286133a61.79809547 61.79809547 0 0 1-61.79809547 61.79809618h-308.99047875V156.66094971z" fill="#000000" p-id="4268"></path><path d="M1051.49737549 686.27063012l-123.59619165-156.78176903h82.37686205V377.28015136h82.37686134v152.20870973h82.4386599z" fill="#FFFFFF" p-id="4269"></path></svg>